Coordinates
version=1
nRows=43
nColumns=12
inDegrees=yes

Units are S.I. units (second, meters, Newtons, ...)
Angles are in degrees

endheader
time	SC_y	SC_z	SC_x	AC_y	AC_z	AC_x	GH_y	GH_z	GH_yy	EL_x	PS_y
       0.0              -47.68          31.26          72.57          61.43         -3.626         -12.65         -105.8         -7.369          56.09          100.2           11.9
  0.001312              -47.68          31.26          72.56          61.43         -3.626         -12.65         -105.8         -7.357          56.08          100.2          11.91
  0.002624              -47.68          31.26          72.55          61.42         -3.625         -12.65         -105.8         -7.344          56.07          100.2          11.93
  0.003937              -47.69          31.26          72.55          61.42         -3.624         -12.66         -105.7         -7.331          56.07          100.2          11.94
  0.005249              -47.69          31.26          72.54          61.41         -3.623         -12.66         -105.7         -7.317          56.06          100.2          11.96
  0.006561              -47.69          31.26          72.53          61.41         -3.622         -12.66         -105.7         -7.302          56.05          100.2          11.98
  0.007873              -47.69          31.26          72.51           61.4         -3.621         -12.66         -105.6         -7.286          56.04          100.1          11.99
  0.009186              -47.69          31.25           72.5           61.4          -3.62         -12.66         -105.6         -7.268          56.03          100.1          12.01
    0.0105              -47.69          31.25          72.49          61.39         -3.618         -12.66         -105.5          -7.25          56.02          100.1          12.04
   0.01181               -47.7          31.25          72.48          61.38         -3.617         -12.66         -105.5          -7.23          56.01          100.1          12.06
   0.01312               -47.7          31.25          72.46          61.38         -3.616         -12.67         -105.4         -7.209           56.0          100.1          12.08
   0.01443               -47.7          31.25          72.45          61.37         -3.614         -12.67         -105.4         -7.186          55.99          100.1          12.11
   0.01575               -47.7          31.25          72.43          61.36         -3.613         -12.67         -105.3         -7.161          55.98          100.1          12.14
   0.01706              -47.71          31.24          72.41          61.35         -3.611         -12.67         -105.2         -7.135          55.96          100.0          12.17
   0.01837              -47.71          31.24          72.39          61.34         -3.609         -12.67         -105.2         -7.106          55.95          100.0           12.2
   0.01968              -47.71          31.24          72.37          61.33         -3.607         -12.68         -105.1         -7.075          55.93          100.0          12.23
     0.021              -47.72          31.24          72.35          61.32         -3.604         -12.68         -105.0         -7.041          55.91          99.97          12.27
   0.02231              -47.72          31.23          72.32           61.3         -3.602         -12.68         -104.9         -7.004          55.89          99.95          12.32
   0.02362              -47.73          31.23          72.29          61.29         -3.599         -12.69         -104.8         -6.963          55.87          99.92          12.36
   0.02493              -47.73          31.23          72.26          61.27         -3.596         -12.69         -104.7         -6.919          55.85          99.89          12.41
   0.02624              -47.74          31.22          72.23          61.26         -3.593         -12.69         -104.6          -6.87          55.82          99.86          12.47
   0.02756              -47.74          31.22          72.19          61.24         -3.589          -12.7         -104.4         -6.817           55.8          99.82          12.53
   0.02887              -47.75          31.21          72.15          61.22         -3.586          -12.7         -104.3         -6.758          55.77          99.78          12.59
   0.03018              -47.76          31.21          72.11           61.2         -3.581         -12.71         -104.1         -6.692          55.73          99.73          12.67
   0.03149              -47.77           31.2          72.06          61.17         -3.576         -12.72         -103.9         -6.619          55.69          99.69          12.75
   0.03281              -47.78           31.2           72.0          61.14         -3.571         -12.72         -103.7         -6.538          55.65          99.63          12.84
   0.03412              -47.79          31.19          71.94          61.11         -3.565         -12.73         -103.5         -6.447           55.6          99.57          12.95
   0.03543               -47.8          31.18          71.87          61.07         -3.558         -12.74         -103.2         -6.345          55.55           99.5          13.06
   0.03674              -47.81          31.17          71.79          61.03          -3.55         -12.75         -102.9         -6.229          55.49          99.42           13.2
   0.03805              -47.83          31.16           71.7          60.99         -3.541         -12.76         -102.6         -6.098          55.42          99.33          13.34
   0.03937              -47.84          31.15           71.6          60.94         -3.531         -12.77         -102.2         -5.948          55.34          99.23          13.51
   0.04068              -47.86          31.14          71.48          60.88          -3.52         -12.79         -101.8         -5.776          55.25          99.11          13.71
   0.04199              -47.89          31.12          71.35          60.81         -3.507         -12.81         -101.2         -5.578          55.15          98.97          13.94
    0.0433              -47.91          31.11          71.19          60.73         -3.491         -12.83         -100.7         -5.347          55.03          98.82           14.2
   0.04462              -47.94          31.09          71.01          60.63         -3.473         -12.85         -99.96         -5.077          54.88          98.63           14.5
   0.04593              -47.98          31.06          70.79          60.52         -3.452         -12.88         -99.14         -4.759          54.72          98.42          14.87
   0.04724              -48.02          31.03          70.53          60.39         -3.427         -12.91         -98.17         -4.381          54.52          98.16           15.3
   0.04855              -48.08           31.0          70.22          60.23         -3.396         -12.95          -97.0         -3.927          54.28          97.85          15.81
   0.04987              -48.14          30.96          69.85          60.04          -3.36         -12.99          -95.6         -3.379           54.0          97.48          16.43
   0.05118              -48.21          30.91          69.39          59.81         -3.315         -13.05         -93.88         -2.709          53.64          97.02          17.19
   0.05249              -48.31          30.84          68.83          59.52         -3.259         -13.12         -91.75         -1.882          53.21          96.45          18.13
    0.0538              -48.43          30.76          68.12          59.16         -3.191         -13.21         -89.11        -0.8513          52.67          95.75          19.31
   0.05511              -48.58          30.66          67.24          58.71         -3.104         -13.32         -85.77         0.4474          51.99          94.87          20.78
